<svg width="var(--logo-size, 200px)" height="var(--logo-size, 200px)" viewBox="0 0 90 90" version="1.1" xmlns="http://www.w3.org/2000/svg" style="fill-rule:evenodd;clip-rule:evenodd;stroke-linejoin:round;stroke-miterlimit:1.5;">
    <!-- Background -->
    <g transform="matrix(1,0,0,1,-1154.72,-1709.14)">
        <path d="M1244.29,1713.28C1244.29,1711 1242.44,1709.15 1240.16,1709.15L1158.85,1709.15C1156.57,1709.15 1154.72,1711 1154.72,1713.28L1154.72,1794.59C1154.72,1796.87 1156.57,1798.72 1158.85,1798.72L1240.16,1798.72C1242.44,1798.72 1244.29,1796.87 1244.29,1794.59L1244.29,1713.28Z" style="fill:var(--bg, Gainsboro);"/>
    </g>
    <!-- Trunk -->
    <g transform="matrix(1,0,0,1,-1100.69,-1709.14)">
        <path d="M1145.47,1771.64L1145.47,1794.59" style="fill:none;stroke:var(--dark, black);stroke-width:4.13px;"/>
    </g>
    <!-- Canopy -->
    <path d="M25.111,28.505L25.071,28.421L23.516,31.72L23.434,31.894C23.39,31.986 23.347,32.078 23.303,32.171L23.05,32.71C23.008,32.8 22.966,32.89 22.924,32.981L22.81,33.227L22.763,33.328L22.763,33.328C17.59,44.556 14.998,55.095 15.248,62.685C15.442,68.607 17.417,72.855 20.828,74.825C23.4,76.309 26.641,76.462 30.305,75.254C34.631,73.828 39.658,70.439 44.768,65.474L44.787,65.493L44.806,65.474C49.916,70.439 54.943,73.828 59.268,75.254C62.932,76.462 66.173,76.309 68.745,74.825C72.156,72.855 74.131,68.607 74.326,62.685C74.575,55.095 71.983,44.556 66.81,33.328L66.81,33.328L66.763,33.227L66.649,32.981C66.607,32.89 66.565,32.8 66.523,32.71L66.27,32.171C66.227,32.078 66.183,31.986 66.14,31.894L66.057,31.72L64.502,28.421L64.463,28.505C63.611,26.854 62.704,25.195 61.746,23.536C56.983,15.286 51.602,8.156 46.279,2.693L44.787,1.162L43.295,2.693C37.971,8.156 32.59,15.286 27.827,23.536C26.869,25.195 25.963,26.854 25.111,28.505ZM25.152,38.231C21.219,47.547 19.202,56.154 19.412,62.548C19.548,66.691 20.525,69.838 22.912,71.216C24.562,72.169 26.649,72.073 29,71.297C32.872,70.021 37.316,66.92 41.88,62.472L41.835,62.424L41.796,62.382L41.733,62.313L41.652,62.225L41.595,62.163L41.547,62.11L41.491,62.05L41.424,61.976L41.354,61.899L41.297,61.836L41.251,61.785L41.197,61.726L41.113,61.632L41.047,61.56L41.011,61.519L40.969,61.473L40.869,61.361L40.798,61.281L40.771,61.252L40.742,61.218L40.621,61.082L40.548,61L40.532,60.982L40.514,60.962L40.354,60.78L40.298,60.717L40.293,60.71C40.213,60.62 40.134,60.529 40.054,60.437L40.049,60.431L39.997,60.371L39.832,60.181L39.815,60.161L39.8,60.143L39.727,60.059L39.605,59.917L39.576,59.883L39.551,59.853L39.479,59.769L39.378,59.651L39.337,59.603L39.302,59.561L39.236,59.483L39.151,59.383L39.098,59.32L39.053,59.266L38.995,59.197L38.925,59.113L38.859,59.034L38.804,58.969L38.756,58.911L38.698,58.842L38.619,58.746L38.556,58.67L38.517,58.623L38.472,58.568L38.377,58.454L38.308,58.369L38.279,58.333L38.246,58.293L38.133,58.155L38.06,58.065L38.041,58.042L38.02,58.016L37.876,57.839L37.812,57.76L37.803,57.749C37.724,57.651 37.645,57.553 37.566,57.454L37.343,57.174L37.317,57.142L37.247,57.053L37.118,56.89L37.092,56.858L37.07,56.83L36.998,56.738L36.893,56.604L36.856,56.557L36.823,56.515L36.756,56.429L36.668,56.316L36.619,56.253L36.577,56.199L36.518,56.122L36.444,56.027L36.382,55.947L36.331,55.881L36.28,55.814L36.22,55.736L36.145,55.638L36.085,55.56L36.044,55.506L35.996,55.443L35.907,55.326L35.84,55.237L35.809,55.195L35.772,55.148L35.667,55.008L35.595,54.913L35.574,54.884L35.549,54.851L35.419,54.678L35.351,54.586L35.326,54.553L35.127,54.285L35.105,54.255C35.027,54.15 34.95,54.044 34.872,53.938L34.863,53.926L34.798,53.838L34.66,53.649L34.639,53.62L34.62,53.593L34.548,53.495L34.439,53.344L34.406,53.299L34.377,53.258L34.309,53.164L34.218,53.038L34.173,52.975L34.135,52.922L34.074,52.836L33.997,52.729L33.941,52.65L33.893,52.583L33.84,52.509L33.777,52.42L33.708,52.322L33.651,52.242L33.608,52.18L33.557,52.108L33.475,51.99L33.411,51.899L33.377,51.851L33.338,51.795L33.24,51.654L33.17,51.554L33.146,51.52L33.119,51.481L33,51.309L32.931,51.208L32.916,51.187L32.901,51.164L32.739,50.928L32.691,50.859L32.687,50.853C32.611,50.742 32.535,50.63 32.459,50.518L32.453,50.509L32.398,50.427L32.248,50.206L32.231,50.18L32.215,50.157L32.145,50.053L32.032,49.884L32.003,49.84L31.978,49.802L31.91,49.701L31.816,49.56L31.776,49.499L31.741,49.446L31.679,49.353L31.601,49.234L31.549,49.155L31.505,49.088L31.451,49.006L31.386,48.907L31.322,48.809L31.269,48.728L31.224,48.659L31.171,48.578L31.095,48.46L31.034,48.367L30.999,48.312L30.958,48.248L30.867,48.107L30.8,48.003L30.774,47.962L30.744,47.916L30.636,47.746L30.567,47.638L30.55,47.612L30.532,47.583L30.392,47.362L30.334,47.271L30.327,47.26C30.253,47.143 30.179,47.025 30.105,46.907L29.898,46.574L29.871,46.532L29.805,46.425L29.688,46.235L29.663,46.195L29.641,46.16L29.574,46.051L29.478,45.895L29.443,45.836L29.411,45.785L29.35,45.684L29.269,45.553L29.223,45.476L29.182,45.41L29.128,45.32L29.061,45.209L29.003,45.113L28.954,45.032L28.908,44.956L28.854,44.864L28.784,44.747L28.727,44.653L28.69,44.591L28.647,44.518L28.564,44.378L28.501,44.272L28.473,44.225L28.441,44.171L28.342,44.002L28.275,43.889L28.257,43.857L28.236,43.821L28.112,43.611L28.051,43.505L28.041,43.489C27.97,43.366 27.898,43.243 27.827,43.119L27.666,42.839L27.651,42.813L27.603,42.729L27.506,42.56L27.49,42.532L27.476,42.507L27.424,42.416L27.347,42.28L27.323,42.238L27.302,42.201L27.254,42.115L27.189,42L27.157,41.944L27.13,41.895L27.086,41.818L27.031,41.72L26.992,41.65L26.958,41.589L26.921,41.522L26.875,41.441L26.828,41.355L26.788,41.284L26.757,41.227L26.72,41.161L26.664,41.059L26.619,40.978L26.594,40.933L26.566,40.882L26.5,40.761L26.451,40.672L26.433,40.639L26.413,40.602L26.334,40.457L26.285,40.367L26.261,40.323L26.16,40.137L26.119,40.061L26.115,40.053C26.062,39.955 26.009,39.858 25.957,39.76L25.81,39.485L25.792,39.451L25.745,39.362L25.662,39.206L25.646,39.174L25.63,39.146L25.583,39.056L25.515,38.927L25.491,38.881L25.47,38.841L25.426,38.757L25.369,38.649L25.338,38.588L25.31,38.536L25.272,38.461L25.224,38.37L25.185,38.295L25.152,38.231L25.152,38.231L25.152,38.231ZM47.733,62.429L47.694,62.472C52.258,66.92 56.701,70.021 60.573,71.297C62.925,72.073 65.011,72.169 66.662,71.216C69.048,69.838 70.025,66.691 70.161,62.548C70.371,56.154 68.354,47.547 64.421,38.231L64.388,38.294L64.349,38.37L64.301,38.461L64.263,38.536L64.236,38.588L64.204,38.649L64.147,38.757L64.104,38.84L64.082,38.881L64.058,38.927L63.99,39.056L63.943,39.145L63.928,39.174L63.911,39.206L63.828,39.362L63.781,39.451L63.763,39.485L63.647,39.702L63.616,39.76C63.564,39.858 63.511,39.955 63.459,40.053L63.454,40.061L63.414,40.136L63.313,40.323L63.289,40.367L63.239,40.457L63.16,40.602L63.14,40.639L63.122,40.672L63.074,40.76L63.007,40.882L62.979,40.933L62.954,40.978L62.91,41.059L62.853,41.161L62.817,41.227L62.785,41.284L62.746,41.355L62.698,41.441L62.653,41.522L62.615,41.589L62.581,41.65L62.542,41.72L62.487,41.818L62.444,41.895L62.416,41.944L62.385,42L62.32,42.115L62.271,42.201L62.25,42.238L62.227,42.28L62.149,42.416L62.097,42.507L62.083,42.532L62.067,42.56L61.971,42.729L61.922,42.813L61.915,42.826C61.859,42.923 61.803,43.021 61.746,43.119C61.746,43.119 61.542,43.471 61.542,43.471L61.523,43.505L61.461,43.611L61.338,43.821L61.317,43.857L61.298,43.889L61.232,44.002L61.132,44.171L61.1,44.225L61.072,44.272L61.01,44.378L60.926,44.518L60.883,44.591L60.846,44.653L60.79,44.747L60.72,44.864L60.665,44.956L60.619,45.032L60.57,45.113L60.512,45.209L60.445,45.32L60.391,45.41L60.351,45.476L60.304,45.553L60.224,45.684L60.162,45.785L60.131,45.836L60.095,45.895L59.999,46.051L59.932,46.16L59.91,46.195L59.886,46.235L59.768,46.425L59.702,46.532L59.676,46.574L59.509,46.841L59.468,46.907C59.394,47.025 59.32,47.143 59.246,47.26L59.239,47.271L59.181,47.363L59.041,47.583L59.023,47.612L59.006,47.638L58.937,47.746L58.829,47.916L58.799,47.962L58.773,48.003L58.706,48.107L58.616,48.248L58.575,48.311L58.539,48.367L58.478,48.46L58.402,48.578L58.349,48.659L58.304,48.728L58.251,48.809L58.188,48.907L58.122,49.006L58.069,49.088L58.024,49.155L57.973,49.234L57.894,49.353L57.833,49.446L57.797,49.499L57.757,49.56L57.664,49.7L57.596,49.802L57.57,49.841L57.541,49.884L57.428,50.052L57.358,50.157L57.342,50.18L57.325,50.206L57.177,50.425L57.12,50.509L57.114,50.518C57.038,50.63 56.962,50.742 56.886,50.853L56.882,50.859L56.833,50.931L56.673,51.164L56.657,51.187L56.643,51.208L56.572,51.31L56.454,51.481L56.427,51.519L56.403,51.554L56.333,51.655L56.235,51.795L56.197,51.85L56.163,51.899L56.098,51.991L56.016,52.108L55.966,52.18L55.922,52.242L55.865,52.323L55.796,52.42L55.734,52.508L55.681,52.583L55.632,52.651L55.576,52.729L55.5,52.835L55.439,52.922L55.4,52.976L55.356,53.038L55.265,53.163L55.196,53.258L55.167,53.299L55.135,53.344L55.027,53.492L54.954,53.593L54.934,53.62L54.913,53.649L54.778,53.833L54.71,53.926L54.701,53.939C54.624,54.045 54.546,54.15 54.468,54.255L54.247,54.553L54.223,54.586L54.15,54.683L54.024,54.851L54,54.883L53.978,54.913L53.904,55.011L53.801,55.148L53.766,55.194L53.733,55.237L53.664,55.328L53.577,55.443L53.53,55.504L53.488,55.56L53.426,55.64L53.354,55.736L53.294,55.812L53.242,55.881L53.189,55.949L53.13,56.027L53.058,56.12L52.996,56.199L52.953,56.255L52.905,56.316L52.82,56.426L52.75,56.515L52.716,56.558L52.681,56.604L52.579,56.733L52.503,56.83L52.48,56.86L52.456,56.89L52.333,57.045L52.256,57.142L52.231,57.174L52.056,57.393L52.006,57.456C51.928,57.553 51.85,57.65 51.771,57.747L51.762,57.76L51.687,57.852L51.554,58.016L51.534,58.04L51.514,58.065L51.434,58.162L51.328,58.293L51.297,58.331L51.266,58.369L51.191,58.459L51.102,58.568L51.059,58.62L51.018,58.67L50.951,58.751L50.875,58.842L50.821,58.907L50.769,58.969L50.711,59.038L50.649,59.113L50.582,59.193L50.52,59.266L50.472,59.323L50.422,59.383L50.342,59.477L50.272,59.561L50.233,59.606L50.195,59.651L50.101,59.761L50.023,59.853L49.994,59.886L49.968,59.917L49.857,60.046L49.774,60.143L49.756,60.164L49.741,60.181L49.601,60.343L49.524,60.431L49.517,60.44C49.439,60.529 49.361,60.619 49.283,60.708L49.275,60.717L49.194,60.808L49.059,60.962L49.044,60.979L49.025,61L48.939,61.098L48.832,61.218L48.805,61.248L48.776,61.281L48.695,61.372L48.604,61.473L48.567,61.515L48.526,61.56L48.453,61.641L48.377,61.726L48.327,61.78L48.276,61.836L48.213,61.906L48.149,61.976L48.088,62.043L48.027,62.11L47.973,62.169L47.921,62.225L47.849,62.304L47.777,62.382L47.733,62.429ZM61.146,35.484L61.144,35.489C60.943,35.885 60.739,36.282 60.532,36.679L60.526,36.69L60.431,36.871L60.392,36.947L60.308,37.106L60.256,37.204L60.178,37.352L60.12,37.462L60.045,37.602L59.982,37.72L59.91,37.855L59.843,37.98L59.773,38.108L59.7,38.244L59.636,38.362L59.546,38.528L59.497,38.617L59.359,38.868L59.31,38.958L59.218,39.125L59.16,39.229L59.075,39.382L59.015,39.491L58.931,39.64L58.87,39.75L58.786,39.899L58.725,40.008L58.639,40.159L58.579,40.265L58.49,40.422L58.433,40.522L58.334,40.695L58.286,40.779L58.138,41.036L57.933,41.389L57.865,41.506L57.727,41.742L57.646,41.88L57.52,42.093L57.434,42.239L57.312,42.444L57.224,42.592L57.103,42.793L57.014,42.941L56.892,43.143L56.804,43.288L56.678,43.495L56.594,43.633L56.458,43.855L56.384,43.976L56.21,44.256L56.173,44.317L55.961,44.657L55.899,44.756L55.748,44.995L55.667,45.123L55.535,45.332L55.447,45.47L55.321,45.668L55.23,45.809L55.106,46.003L55.014,46.145L54.889,46.338L54.798,46.478L54.67,46.674L54.582,46.808L54.446,47.014L54.365,47.136L54.205,47.377L54.148,47.463L53.931,47.787L53.881,47.862L53.713,48.11L53.633,48.228L53.495,48.432L53.406,48.562L53.275,48.752L53.183,48.887L53.055,49.072L52.961,49.207L52.833,49.39L52.74,49.524L52.61,49.71L52.519,49.839L52.383,50.031L52.297,50.152L52.145,50.366L52.076,50.463L51.854,50.771L51.828,50.807L51.632,51.078L51.555,51.183L51.409,51.384L51.32,51.504L51.185,51.688L51.092,51.814L50.961,51.99L50.866,52.118L50.736,52.292L50.64,52.42L50.509,52.594L50.415,52.718L50.279,52.897L50.19,53.014L50.042,53.208L49.965,53.308L49.763,53.57L49.74,53.6L49.515,53.89L49.444,53.98L49.289,54.178L49.201,54.289L49.062,54.465L48.968,54.583L48.835,54.75L48.739,54.87L48.607,55.034L48.511,55.154L48.378,55.318L48.283,55.435L48.147,55.602L48.055,55.714L47.91,55.89L47.828,55.99L47.651,56.203L47.6,56.265L47.372,56.537L47.311,56.609L47.144,56.807L47.059,56.907L46.916,57.075L46.823,57.184L46.687,57.342L46.591,57.454L46.458,57.608L46.361,57.72L46.228,57.872L46.131,57.983L45.996,58.136L45.902,58.243L45.76,58.403L45.673,58.5L45.51,58.682L45.444,58.756L45.216,59.009L45.173,59.056L44.987,59.26L44.905,59.349L44.787,59.478L44.655,59.335L44.589,59.263L44.373,59.026L44.36,59.012L44.127,58.753L44.081,58.702L43.898,58.498L43.823,58.413L43.669,58.24L43.583,58.143L43.439,57.979L43.35,57.877L43.209,57.716L43.118,57.611L42.978,57.449L42.888,57.345L42.745,57.178L42.659,57.078L42.507,56.899L42.431,56.809L42.249,56.594L42.202,56.538L41.972,56.263L41.936,56.22L41.744,55.989L41.669,55.898L41.517,55.712L41.43,55.607L41.289,55.433L41.198,55.321L41.061,55.152L40.968,55.037L40.832,54.868L40.74,54.752L40.602,54.58L40.512,54.467L40.369,54.285L40.286,54.18L40.124,53.973L40.06,53.891L39.833,53.599L39.607,53.307L39.535,53.213L39.382,53.013L39.296,52.9L39.157,52.717L39.066,52.596L38.932,52.418L38.839,52.294L38.707,52.117L38.613,51.992L38.48,51.812L38.389,51.689L38.252,51.502L38.165,51.384L38.016,51.18L37.942,51.079L37.74,50.8L37.72,50.772L37.497,50.462L37.431,50.369L37.276,50.151L37.192,50.033L37.054,49.839L36.964,49.71L36.833,49.524L36.741,49.391L36.612,49.206L36.519,49.072L36.39,48.886L36.298,48.753L36.167,48.561L36.079,48.432L35.939,48.227L35.86,48.11L35.691,47.86L35.642,47.787L35.425,47.463L35.369,47.378L35.208,47.136L35.128,47.015L34.992,46.808L34.904,46.674L34.775,46.477L34.685,46.338L34.559,46.145L34.468,46.003L34.343,45.809L34.252,45.668L34.126,45.47L34.038,45.332L33.906,45.123L33.825,44.995L33.674,44.756L33.612,44.657L33.401,44.317L33.363,44.257L33.19,43.976L33.115,43.855L32.979,43.633L32.895,43.495L32.769,43.288L32.681,43.144L32.559,42.941L32.47,42.793L32.35,42.592L32.261,42.444L32.139,42.239L32.053,42.093L31.927,41.88L31.846,41.742L31.708,41.506L31.64,41.389L31.435,41.036C31.435,41.036 31.288,40.779 31.288,40.779L31.239,40.695L31.141,40.522L31.084,40.422L30.994,40.265L30.934,40.159L30.849,40.008L30.788,39.899L30.703,39.749L30.643,39.641L30.557,39.488L30.499,39.384L30.41,39.224L30.357,39.127L30.255,38.943L30.215,38.87L30.075,38.614L30.047,38.564L29.935,38.358L29.885,38.266L29.796,38.101L29.741,37.999L29.658,37.844L29.601,37.737L29.52,37.587L29.463,37.479L29.383,37.329L29.326,37.222L29.245,37.068L29.191,36.965L29.105,36.801L29.057,36.709L28.951,36.506L28.924,36.453L28.792,36.198L28.755,36.127L28.661,35.943L28.612,35.846L28.53,35.687L28.477,35.583L28.4,35.431L28.346,35.324L28.271,35.174L28.217,35.067L28.142,34.916L28.089,34.811L28.012,34.655L27.963,34.555L27.879,34.385L27.837,34.301L27.713,34.046L27.589,33.792L27.549,33.709L27.467,33.538L27.419,33.439L27.366,33.328C28.586,30.776 29.946,28.199 31.435,25.619C35.564,18.468 40.169,12.189 44.787,7.177C49.404,12.189 54.009,18.468 58.138,25.619C59.627,28.199 60.988,30.776 62.207,33.327C61.865,34.044 61.511,34.763 61.146,35.484Z" style="fill:var(--mid, LightSlateGray);"/>
</svg>
